<svg width="94" height="48" viewBox="0 0 94 48" fill="none" xmlns="http://www.w3.org/2000/svg">
<path d="M21.0847 21.22C20.5645 16.1665 16.7669 13.2789 11.6168 13.2789C5.93599 13.2789 1.51411 17.1463 1.51411 24.1283C1.51411 31.0794 5.83194 34.9778 11.6168 34.9778C17.464 34.9778 20.6998 31.0382 21.0847 27.2945L15.8825 27.2636C15.5184 29.2952 13.9786 30.5019 11.7208 30.5019C8.68274 30.5019 6.76831 28.3258 6.76831 24.1283C6.76831 20.0959 8.64111 17.7548 11.752 17.7548C14.093 17.7548 15.6224 19.1058 15.8825 21.22H21.0847ZM24.0318 34.6891H29.1819V27.4595H31.8246L35.7159 34.6891H41.3344L36.9124 26.6448C39.2534 25.5928 40.6059 23.5199 40.6059 20.6012C40.6059 16.2594 37.6199 13.5676 32.8339 13.5676H24.0318V34.6891ZM29.1819 23.4374V17.6826H31.7206C34.0303 17.6826 35.2685 18.6417 35.2685 20.6012C35.2685 22.5607 34.0303 23.4374 31.7206 23.4374H29.1819ZM43.3889 34.6891H59.1622V30.5741H50.5264V30.44L53.0754 28.1092C57.6952 24.118 58.9022 22.0863 58.9022 19.6627C58.9022 15.8571 55.7705 13.2789 50.9321 13.2789C46.2191 13.2789 43.0666 15.9706 43.0768 20.2712H47.9567C47.9567 18.3633 49.1429 17.2598 50.9114 17.2598C52.6489 17.2598 53.908 18.322 53.908 20.0649C53.908 21.6428 52.909 22.7154 51.1612 24.2727L43.3889 31.0176V34.6891Z" fill="#09509E"/>
<path d="M67.5762 27.0315H69.4334C69.3968 25.2473 67.8623 23.9839 65.5941 23.9839C63.3572 23.9839 61.677 25.2319 61.6823 27.0985C61.6823 28.6146 62.7692 29.4861 64.5227 29.9347L65.7345 30.2441C66.8845 30.5328 67.6438 30.8886 67.6491 31.7086C67.6438 32.611 66.7803 33.2143 65.5213 33.2143C64.3143 33.2143 63.378 32.678 63.2998 31.5693H61.4011C61.4793 33.6681 63.0557 34.8489 65.5371 34.8489C68.0914 34.8489 69.5738 33.5856 69.5791 31.724C69.5738 29.8934 68.0495 29.0581 66.4474 28.6816L65.4484 28.4341C64.5747 28.2278 63.6278 27.8617 63.638 26.98C63.6433 26.1858 64.3611 25.6031 65.5681 25.6031C66.718 25.6031 67.4773 26.1343 67.5762 27.0315ZM73.5418 34.6891H75.4458L77.5838 27.279H77.6672L79.7999 34.6891H81.7039L84.7111 24.1284H82.6354L80.7155 31.8942H80.6219L78.5673 24.1284H76.6788L74.6291 31.889H74.5302L72.6107 24.1284H70.535L73.5418 34.6891ZM86.0491 34.6891H93.0201V33.0853H87.9791V30.2028H92.6197V28.5991H87.9791V25.732H92.9786V24.1284H86.0491V34.6891Z" fill="#39B24A"/>
</svg>
