<?xml version="1.0" standalone="no"?>
<!DOCTYPE svg PUBLIC "-//W3C//DTD SVG 20010904//EN"
 "http://www.w3.org/TR/2001/REC-SVG-20010904/DTD/svg10.dtd">
<svg version="1.0" xmlns="http://www.w3.org/2000/svg"
 width="1856.000000pt" height="1856.000000pt" viewBox="0 0 1856.000000 1856.000000"
 preserveAspectRatio="xMidYMid meet">
<metadata>
Created by potrace 1.11, written by Peter Selinger 2001-2013
</metadata>
<g transform="translate(0.000000,1856.000000) scale(0.100000,-0.100000)"
fill="#000000" stroke="none">
<path d="M2999 12796 c-2 -2 -42 -7 -89 -10 -84 -7 -126 -11 -185 -20 -16 -3
-52 -8 -80 -12 -27 -3 -53 -8 -57 -10 -3 -2 -28 -7 -54 -10 -27 -3 -51 -7 -55
-9 -3 -2 -21 -7 -40 -10 -19 -3 -86 -20 -149 -36 -108 -28 -143 -40 -322 -106
-114 -41 -254 -107 -398 -186 -91 -49 -337 -214 -370 -247 -3 -3 -25 -22 -50
-42 -149 -122 -297 -273 -423 -432 -26 -34 -54 -68 -61 -77 -7 -8 -21 -30 -32
-47 -10 -18 -22 -32 -26 -32 -4 0 -8 -7 -8 -15 0 -8 -4 -15 -10 -15 -5 0 -10
-5 -10 -11 0 -6 -11 -25 -25 -43 -14 -18 -25 -36 -25 -39 0 -3 -13 -25 -29
-49 -36 -53 -164 -303 -187 -366 -10 -26 -23 -50 -28 -54 -6 -4 -8 -8 -4 -8 4
0 -1 -19 -11 -42 -10 -24 -30 -79 -45 -123 -15 -44 -30 -87 -33 -95 -3 -8 -8
-21 -10 -27 -1 -7 -5 -19 -6 -25 -2 -7 -6 -20 -10 -28 -7 -19 -27 -100 -30
-120 -2 -8 -5 -19 -8 -25 -8 -13 -23 -87 -20 -99 1 -4 -3 -14 -9 -20 -5 -7 -8
-15 -5 -17 2 -3 -1 -22 -6 -44 -15 -63 -27 -126 -34 -190 -2 -16 -6 -43 -9
-60 -9 -57 -24 -189 -33 -291 -9 -107 -8 -661 1 -754 4 -41 9 -97 12 -125 2
-27 6 -68 8 -90 4 -42 12 -96 22 -155 4 -19 8 -44 9 -55 2 -11 6 -33 9 -50 3
-16 8 -43 11 -60 3 -16 10 -46 15 -65 5 -19 11 -46 14 -60 3 -14 7 -34 10 -45
15 -58 37 -141 40 -150 1 -5 8 -30 15 -55 6 -25 16 -53 22 -64 6 -10 13 -29
15 -43 6 -33 85 -231 130 -328 21 -44 38 -82 39 -85 0 -3 7 -16 16 -30 9 -14
24 -44 35 -67 10 -24 22 -43 27 -43 4 0 7 -4 7 -9 0 -19 160 -270 219 -343
139 -174 249 -292 383 -412 60 -54 312 -246 323 -246 3 0 21 -11 38 -24 74
-56 352 -196 507 -256 30 -12 63 -26 72 -31 10 -5 26 -9 36 -9 10 0 22 -3 26
-7 4 -5 12 -9 17 -9 5 -1 11 -3 14 -4 3 -1 8 -3 13 -5 4 -1 14 -5 22 -8 24
-10 321 -85 364 -91 21 -4 41 -8 45 -10 3 -2 29 -7 56 -10 28 -3 60 -8 72 -10
12 -3 49 -7 82 -11 33 -3 69 -8 80 -10 58 -11 527 -26 536 -17 2 2 55 6 117 8
97 3 153 9 153 14 0 1 20 3 45 5 90 9 163 19 225 31 11 3 43 9 70 15 28 6 62
13 78 15 15 3 82 21 150 41 67 19 127 36 132 37 13 4 47 16 155 57 19 8 37 14
40 14 3 1 28 12 55 25 28 13 52 24 55 25 29 10 69 27 85 37 11 6 58 32 105 56
47 25 103 57 125 71 22 14 47 30 56 36 94 59 202 137 283 205 160 134 330 312
436 457 19 27 37 50 40 53 15 15 50 71 50 80 0 5 5 10 10 10 6 0 10 6 10 14 0
8 4 16 8 18 5 2 23 30 42 63 18 33 36 62 39 65 6 5 95 184 125 250 25 57 81
210 100 275 10 33 20 67 23 75 3 8 8 24 9 35 2 11 9 38 14 60 18 68 46 238 46
275 l-1 35 -266 1 c-146 0 -271 4 -277 8 -6 3 -13 3 -16 -2 -5 -8 -75 -7 -83
2 -3 2 -17 1 -32 -4 -16 -4 -34 -4 -42 0 -7 5 -21 4 -30 -1 -11 -5 -20 -5 -24
0 -3 6 -17 6 -35 1 -16 -5 -32 -5 -34 -2 -5 9 -70 7 -85 -3 -6 -3 -11 -2 -11
3 0 4 -17 7 -37 4 -21 -2 -42 -3 -48 -3 -5 1 -151 2 -323 4 -339 3 -315 7
-326 -53 -7 -39 -36 -142 -42 -151 -3 -5 -7 -20 -10 -33 -7 -39 -106 -225
-157 -295 -142 -195 -341 -338 -582 -419 -77 -26 -116 -36 -225 -57 -8 -2 -15
-4 -15 -5 0 -8 -146 -15 -300 -14 -175 1 -266 9 -370 33 -22 5 -51 12 -64 15
-50 12 -157 50 -178 64 -13 8 -23 11 -23 8 0 -10 -138 66 -217 119 -145 96
-315 272 -387 400 -9 17 -25 44 -36 60 -21 34 -67 125 -100 200 -20 43 -86
230 -87 245 -1 3 -6 25 -13 50 -14 53 -20 78 -25 105 -2 11 -6 31 -10 45 -7
34 -26 148 -30 185 -2 17 -4 30 -5 30 -1 0 -3 20 -5 45 -2 25 -7 81 -11 125
-16 162 -9 561 12 730 7 56 40 259 48 290 10 44 27 111 31 125 2 8 8 31 13 50
5 20 14 44 19 55 6 11 11 24 11 28 0 33 111 281 161 357 25 40 40 64 47 80 4
8 10 17 13 20 4 3 30 35 59 72 100 130 236 250 377 335 88 52 285 134 355 147
14 2 48 10 75 16 77 18 86 19 155 26 85 9 351 8 415 0 106 -14 214 -38 290
-63 28 -10 52 -18 55 -18 5 -2 51 -22 113 -50 93 -42 234 -143 316 -225 64
-66 152 -187 195 -268 70 -136 133 -343 139 -454 1 -10 6 -18 12 -19 21 -1
210 0 215 2 3 1 10 0 15 -1 12 -3 211 -2 223 1 4 1 12 0 17 -1 12 -3 211 -2
223 1 4 1 12 0 17 -1 12 -3 211 -2 223 1 4 1 12 0 17 -1 12 -2 378 -2 385 1 3
1 10 0 15 -1 9 -2 240 -2 288 -1 16 1 18 7 12 59 -23 197 -45 303 -120 572
-13 50 -76 217 -111 295 -10 22 -18 42 -19 45 0 3 -6 14 -12 25 -6 11 -31 59
-56 107 -40 77 -142 244 -157 258 -3 3 -21 28 -40 55 -19 28 -38 52 -42 53 -4
2 -8 8 -8 12 0 5 -10 20 -22 33 -13 12 -47 51 -77 86 -58 67 -76 85 -167 171
-50 47 -87 78 -200 169 -15 12 -133 94 -152 106 -9 6 -36 22 -59 38 -23 15
-46 27 -51 27 -6 0 -12 4 -14 8 -6 17 -328 169 -418 198 -25 8 -54 19 -65 24
-11 5 -38 14 -60 21 -22 6 -49 15 -60 20 -31 12 -206 58 -250 65 -22 3 -44 9
-50 12 -11 7 -17 8 -90 18 -27 3 -53 8 -56 10 -4 2 -26 6 -50 8 -24 3 -53 7
-64 10 -11 2 -54 7 -95 11 -41 5 -91 10 -110 12 -44 5 -577 13 -581 9z"/>
<path d="M15568 12795 c-2 -2 -37 -6 -78 -9 -154 -13 -207 -21 -405 -60 -66
-13 -171 -39 -180 -44 -5 -4 -14 -7 -20 -8 -18 -3 -169 -52 -210 -69 -22 -9
-49 -19 -60 -24 -58 -22 -302 -148 -359 -186 -36 -24 -66 -40 -66 -37 0 4 -4
2 -8 -4 -4 -6 -38 -35 -77 -64 -38 -29 -71 -56 -73 -61 -2 -5 -8 -9 -13 -9
-12 0 -188 -177 -239 -239 -19 -23 -40 -48 -45 -54 -6 -7 -26 -34 -45 -62 -19
-27 -41 -56 -47 -63 -7 -7 -13 -20 -13 -28 0 -8 -4 -14 -9 -14 -5 0 -12 -8
-15 -17 -3 -10 -12 -27 -19 -38 -20 -32 -101 -189 -103 -201 -1 -6 -9 -27 -17
-45 -36 -81 -89 -245 -101 -309 -3 -14 -11 -59 -20 -100 -29 -141 -40 -245
-40 -390 l-1 -95 170 -1 c94 0 176 -3 183 -8 6 -4 12 -4 12 1 0 4 57 7 127 6
71 -2 133 -3 138 -3 6 0 87 1 180 3 94 1 176 -1 183 -6 6 -5 12 -6 12 -1 0 5
57 8 127 7 71 -2 135 -3 143 -3 290 3 280 2 281 24 13 309 92 515 264 690 42
43 57 54 140 109 147 96 323 141 540 140 243 -1 415 -48 585 -157 55 -36 170
-141 205 -188 63 -83 138 -253 150 -336 2 -15 6 -43 10 -62 19 -100 9 -301
-21 -409 -8 -31 -16 -63 -19 -71 -5 -20 -31 -85 -58 -140 -11 -25 -20 -48 -19
-52 1 -5 -2 -8 -8 -8 -5 0 -10 -5 -10 -11 0 -28 -159 -242 -270 -363 -81 -88
-277 -277 -416 -401 -43 -38 -86 -78 -96 -87 -10 -10 -20 -18 -23 -18 -3 0
-25 -19 -50 -42 -24 -24 -57 -53 -73 -66 -16 -12 -46 -38 -66 -57 -21 -19 -40
-35 -42 -35 -3 0 -15 -10 -28 -22 -12 -13 -49 -45 -81 -73 -32 -27 -68 -59
-81 -70 -12 -11 -44 -39 -71 -61 -26 -23 -60 -52 -74 -65 -14 -13 -45 -40 -68
-59 -23 -19 -54 -46 -69 -60 -15 -14 -57 -50 -92 -80 -35 -30 -75 -65 -89 -78
-58 -50 -80 -69 -136 -117 -32 -27 -68 -59 -80 -70 -13 -11 -49 -42 -81 -70
-31 -27 -62 -54 -68 -60 -6 -5 -43 -37 -81 -70 -39 -33 -71 -63 -73 -67 -2 -5
-10 -8 -18 -8 -8 0 -14 -7 -14 -15 0 -8 -5 -15 -10 -15 -6 0 -24 -14 -40 -30
-16 -17 -32 -30 -35 -30 -3 0 -16 -10 -29 -22 -21 -21 -85 -77 -156 -138 -23
-19 -72 -61 -140 -120 -14 -12 -49 -43 -79 -68 -30 -26 -61 -54 -70 -63 -9 -8
-65 -57 -126 -109 -60 -52 -112 -97 -115 -100 -9 -9 -84 -74 -131 -113 -46
-37 -53 -58 -50 -129 2 -45 2 -77 -1 -125 -2 -28 0 -49 4 -46 5 2 4 -6 0 -19
-5 -13 -7 -34 -5 -48 3 -23 4 -62 2 -92 0 -13 0 -106 0 -145 1 -51 1 -84 0
-95 -1 -7 0 -48 1 -91 2 -43 0 -80 -3 -83 -3 -3 -2 -16 2 -28 5 -11 5 -30 1
-41 -4 -11 -4 -29 0 -40 4 -11 4 -29 0 -40 -4 -11 -4 -30 1 -42 5 -12 4 -25
-1 -28 -5 -3 -5 -18 -1 -33 5 -15 5 -37 1 -48 -5 -11 -5 -26 -1 -33 6 -10 527
-12 2452 -12 1344 0 2478 0 2520 1 l76 0 -1 658 -1 657 -1378 0 c-757 0 -1377
2 -1378 5 0 3 -2 12 -4 22 -2 10 23 39 64 76 36 33 82 75 102 93 19 19 73 68
119 109 46 41 100 90 119 109 20 18 71 64 113 103 42 38 98 89 123 114 26 24
48 44 50 44 2 0 23 19 47 43 24 23 77 71 118 106 41 36 84 73 95 83 61 56 109
99 165 148 72 62 82 72 250 230 284 266 579 576 734 770 56 71 68 87 121 160
30 41 58 80 63 86 5 5 15 21 22 35 7 13 16 26 19 29 19 16 190 325 195 353 1
6 12 34 24 61 12 27 22 53 22 57 0 5 4 17 10 27 10 18 60 192 65 227 7 55 17
110 20 115 7 11 18 196 18 285 -1 125 -10 260 -23 325 -6 30 -13 69 -16 85
-21 126 -97 341 -170 485 -35 69 -118 196 -179 275 -89 114 -278 301 -344 339
-9 5 -21 15 -28 22 -33 32 -203 137 -333 205 -114 59 -450 188 -450 172 0 -3
-7 0 -15 7 -8 7 -15 10 -15 6 0 -3 -11 -1 -25 4 -28 11 -23 10 -190 44 -114
24 -144 29 -232 41 -21 3 -56 8 -78 11 -22 3 -67 8 -100 10 -69 6 -592 14
-597 9z"/>
<path d="M7207 12702 c-6 -14 -1 -6741 5 -6747 8 -8 1628 -8 1636 0 3 3 6 520
7 1150 0 629 3 1147 7 1151 4 4 193 7 419 7 464 0 421 7 459 -79 10 -23 23
-45 29 -48 6 -4 11 -16 11 -26 0 -10 4 -20 8 -22 5 -1 36 -55 69 -118 34 -63
80 -149 103 -190 23 -41 50 -93 61 -115 11 -22 42 -80 70 -130 27 -49 57 -107
66 -127 10 -21 21 -38 25 -38 5 0 8 -9 8 -19 0 -11 5 -23 10 -26 6 -3 18 -23
28 -43 19 -38 71 -136 172 -322 31 -58 76 -141 100 -185 23 -44 57 -107 75
-140 92 -169 155 -289 155 -296 0 -4 3 -9 8 -11 4 -1 15 -19 24 -38 10 -19 40
-78 68 -130 29 -52 65 -121 82 -153 30 -57 30 -57 77 -57 64 -1 1645 -1 1704
0 l48 0 -47 88 c-26 48 -50 92 -54 97 -4 6 -25 44 -47 85 -22 41 -50 93 -63
115 -12 22 -52 94 -88 160 -36 66 -75 138 -87 160 -12 22 -36 65 -52 95 -76
138 -98 177 -114 205 -10 17 -30 53 -44 80 -14 28 -43 82 -65 120 -22 39 -48
86 -57 105 -10 19 -25 46 -34 60 -9 14 -38 66 -64 115 -27 50 -56 104 -65 120
-109 198 -205 370 -229 415 -17 30 -39 71 -49 90 -9 19 -29 55 -43 80 -15 25
-43 76 -63 113 -20 37 -45 83 -56 102 -62 111 -91 167 -88 169 1 2 49 26 106
54 264 132 500 329 668 557 41 55 78 105 84 112 5 7 10 14 10 17 0 2 19 37 42
78 24 40 43 79 45 87 1 8 6 17 10 20 20 14 127 317 147 415 7 30 25 126 31
161 2 17 7 39 9 51 19 94 27 518 13 649 -15 134 -24 196 -32 225 -2 8 -7 31
-10 50 -32 190 -146 488 -255 665 -50 82 -146 215 -191 265 -76 85 -131 140
-140 140 -6 0 -7 5 -4 10 3 6 2 10 -3 10 -6 0 -23 12 -39 28 -70 64 -270 212
-288 212 -4 0 -19 8 -33 19 -34 23 -202 111 -202 106 0 -3 -16 4 -35 15 -20
11 -40 20 -46 20 -5 0 -29 9 -51 20 -23 11 -45 20 -49 20 -4 0 -20 5 -36 12
-15 6 -32 12 -38 14 -143 42 -195 56 -218 60 -16 2 -33 6 -38 10 -5 3 -22 7
-37 9 -15 3 -38 7 -52 10 -84 18 -166 30 -275 41 -33 4 -76 9 -95 11 -56 8
-3119 12 -3123 5z m2721 -1325 c524 -60 832 -344 868 -800 8 -109 3 -261 -11
-327 -3 -14 -7 -34 -9 -45 -14 -76 -84 -244 -113 -273 -7 -7 -13 -17 -13 -20
0 -11 -100 -113 -145 -148 -87 -67 -283 -154 -385 -170 -14 -2 -36 -7 -48 -10
-13 -2 -43 -7 -65 -10 -23 -3 -53 -8 -67 -11 -14 -4 -264 -8 -556 -10 l-530
-4 0 921 0 921 511 -4 c280 -2 534 -6 563 -10z"/>
</g>
</svg>
